<?xml version="1.0" encoding="utf-8"?>
<!-- Generator: Adobe Illustrator 18.0.0, SVG Export Plug-In . SVG Version: 6.00 Build 0)  -->
<!DOCTYPE svg PUBLIC "-//W3C//DTD SVG 1.1//EN" "http://www.w3.org/Graphics/SVG/1.1/DTD/svg11.dtd">
<svg version="1.1" id="Layer_1" xmlns="http://www.w3.org/2000/svg" xmlns:xlink="http://www.w3.org/1999/xlink" x="0px" y="0px"
	 viewBox="0 0 953 662" enable-background="new 0 0 953 662" xml:space="preserve">
<rect x="-0.8" fill="#F4F1F0" width="953.8" height="662"/>
<g>
	<path fill="#6F51A1" d="M438.5,86.8c0-2.3-2.2-4.2-5-4.5c0,0,0,0,0.1,0c0.5-0.3,0.9-0.7,1.3-1.1c0,0,0,0,0,0c3-3,3.5-7.5,1.1-9.9
		c-2.4-2.4-6.9-1.9-9.9,1.1l0,0c-0.4,0.4-0.8,0.9-1.1,1.3c0,0,0,0,0,0.1c-0.3-2.8-2.2-5-4.5-5c-2.5,0-4.4,2.4-4.5,5.5
		c-0.1-0.1-0.1-0.2-0.2-0.3c-2.2-2.2-5.5-2.6-7.2-0.8c-1.5,1.5-1.5,4-0.1,6.1c2.5,4.5,1.8,11-1.3,16.7c-0.4,0.7-0.8,1.4-1.3,2.1
		c-1.8,3-3.2,6.2-4.4,9.6c-1.7,5.2-2.7,10.8-2.7,16.6v0.4c0,1.1,0.9,2,2,2c1.1,0,2-0.9,2-2c0-0.1,0-0.4,0-0.4
		c0-12.6,6.4-23.7,14.8-26.2c0.8-0.2,1.6-0.4,2.4-0.4c0.1,0,0.2,0,0.3,0c2.9-0.3,5.7,0.2,8,1.4c2.1,1.3,4.6,1.3,6.1-0.2
		c1.8-1.8,1.4-5-0.8-7.2c-0.1-0.1-0.2-0.1-0.3-0.2C436.1,91.3,438.5,89.3,438.5,86.8"/>
	<path fill="#6F51A1" d="M408.1,67.6L408.1,67.6c2.9-0.6,5-2.7,5-5.2c0-3-3-5.4-6.8-5.4c-0.1,0-0.3,0-0.4,0c2.5-2.6,2.8-6.3,0.8-8.4
		c-2-2-5.4-1.7-8,0.5c0,0,0-0.1,0-0.1c0.1-0.6,0.2-1.3,0.2-2c0,0,0,0,0,0c0-5.1-3.3-9.2-7.4-9.2c-4.1,0-7.4,4.1-7.4,9.2c0,0,0,0,0,0
		c0,0.7,0.1,1.4,0.2,2c0,0,0,0.1,0,0.1c-2.6-2.2-6.1-2.4-8-0.5c-2.1,2.1-1.7,5.8,0.8,8.4c-0.1,0-0.3,0-0.4,0c-3.7,0-6.8,2.4-6.8,5.4
		c0,2.5,2.1,4.6,5,5.2c8.2,2.3,14.3,13,14.3,24.1v32.5c0,1.3,1.1,2.4,2.4,2.4c1.3,0,2.4-1.1,2.4-2.4V91.8
		C393.8,80.6,399.8,70,408.1,67.6"/>
	<path fill="#6F51A1" d="M381.6,107.6c-1.1-3.4-2.6-6.6-4.4-9.6c-0.5-0.7-0.9-1.4-1.3-2.1c-3.1-5.7-3.9-12.1-1.3-16.7v0
		c1.3-2.1,1.3-4.6-0.2-6.1c-1.8-1.8-5-1.4-7.2,0.8c-0.1,0.1-0.2,0.2-0.2,0.3c-0.1-3-2.1-5.5-4.5-5.5c-2.3,0-4.2,2.2-4.5,5
		c0,0,0,0,0-0.1c-0.3-0.5-0.7-0.9-1.1-1.3v0c-3-3-7.5-3.5-9.9-1.1c-2.4,2.4-1.9,6.9,1.1,9.9c0,0,0,0,0,0c0.4,0.4,0.9,0.8,1.3,1.1
		c0,0,0,0,0.1,0c-2.8,0.3-5,2.2-5,4.5c0,2.5,2.4,4.4,5.5,4.5c-0.1,0.1-0.2,0.1-0.3,0.2c-2.2,2.2-2.6,5.5-0.8,7.2
		c1.5,1.5,4,1.5,6.1,0.2c2.3-1.3,5.1-1.7,8-1.4c0.1,0,0.2,0,0.3,0c0.8,0.1,1.6,0.2,2.4,0.4c8.4,2.5,14.8,13.6,14.8,26.2v0.4
		c0,1.1,0.9,2,2,2c1.1,0,2-0.9,2-2c0-0.1,0-0.4,0-0.4C384.3,118.4,383.4,112.8,381.6,107.6"/>
	<path fill="#028C76" d="M531.1,141.9c-5.2-4.6-11.8-7.3-19-7.3c-17,0-30.8,15.3-30.8,34.1c0,18.8,13.8,34.1,30.8,34.1
		c7.2,0,13.8-2.7,19-7.3v11.9c0,0.7-0.4,1.2-1,1.2c-0.3,0-0.7-0.3-0.7-0.3c-0.5-0.4-1.1-0.7-1.8-0.7c-1.7,0-3,1.7-3,3.8
		c0,3.3,5.5,11.1,13.4,11.1c8.4,0,15.3-8.6,15.3-19.1v-67.6h-22.3V141.9z M531.1,178.7c-2.8,4.3-7.4,7.2-12.6,7.2
		c-8.6,0-15.5-7.7-15.5-17.2c0-9.5,6.9-17.2,15.5-17.2c5.2,0,9.8,2.8,12.6,7.2V178.7z"/>
	<path fill="#028C76" d="M406,188c-0.7,0-1.3,0.3-1.8,0.7c0,0-0.4,0.3-0.7,0.3c-0.5,0-1-0.5-1-1.2v-52.1h-22.3v48
		c0,10.5,6.8,19.1,15.3,19.1c8,0,13.4-7.7,13.4-11.1C409,189.7,407.7,188,406,188"/>
	<path fill="#028C76" d="M478.2,180c-1.7,0-3,1.7-3,3.8c0,0.8-0.5,1.4-1.1,1.4c-0.6,0-1.1-0.6-1.1-1.4c0,0,0-24.4,0-25.7
		c0-8.8-3.7-16.8-10.7-20.8c-8.6-5-19.7-2.8-28.2,4.6v-6.1h-22.3v48c0,10.5,6.8,19.1,15.3,19.1c8,0,13.4-7.7,13.4-11.1
		c0-2.1-1.4-3.8-3-3.8c-0.7,0-1.3,0.3-1.8,0.7c0,0-0.4,0.3-0.7,0.3c-0.5,0-1-0.5-1-1.2v-33.7c3.7-2.9,8.3-3.6,11.9-1.5
		c3.1,1.8,4.8,5.4,4.8,9.3c0,0,0,17.7,0,21.8c0,10.5,6.8,19.1,15.3,19.1c8.4,0,15.3-8.5,15.3-19.1C481.2,181.7,479.9,180,478.2,180"
		/>
	<path fill="#028C76" d="M319.7,153.6h30.3c-5.5,14-17,23.7-30.3,23.7c-18.6,0-33.7-18.9-33.8-42.1h-20c0,37.1,24.1,67.1,53.7,67.1
		c29.7,0,53.7-30,53.7-67.1l-53.7,0V153.6z"/>
	<path fill="#028C76" d="M676.4,137.3c-8.6-5-19.7-2.8-28.3,4.6v-6.1h-22.3v23c0,6.9-6.9,30.2-33.2,27.1c-2.9-0.3-6.9-1.5-10.3-6
		l36.6-21.1c-5.6-17.1-21.9-27.4-37.3-23.3c-16.1,4.3-25.1,22.7-20.2,41c4.2,15.7,17.3,26.4,31,26.4c15.4,0,26.7-8.5,33.4-17
		c0.8,9.6,7.3,17,15.2,17c8,0,13.4-7.7,13.4-11.1c0-2.1-1.4-3.8-3-3.8c-0.7,0-1.3,0.3-1.8,0.7c0,0-0.4,0.3-0.7,0.3
		c-0.5,0-1-0.5-1-1.2v-33.7c3.7-2.9,8.3-3.6,11.9-1.5c3.1,1.8,4.8,5.4,4.8,9.3c0,0,0,2.4,0,5.7l22.1-12.8
		C686.2,147.3,682.6,140.8,676.4,137.3 M586.1,151.9c4.5-1.2,9.3,1.2,12.7,5.7l-20.8,12C576.7,161.1,580.1,153.5,586.1,151.9"/>
</g>
<rect x="-64.6" y="307" fill="none" width="1091.7" height="318"/>
<text transform="matrix(1 0 0 1 171.5133 375.2197)"><tspan x="0" y="0" fill="#6F51A1" font-family="'KohinoorBangla-Bold'" font-size="90">ESTA FUNCIÓN</tspan><tspan x="-117.6" y="108" fill="#6F51A1" font-family="'KohinoorBangla-Bold'" font-size="90">ESTARÁ DISPONIBLE</tspan><tspan x="-35.5" y="216" fill="#6F51A1" font-family="'KohinoorBangla-Bold'" font-size="90">PRÓXIMAMENTE</tspan></text>
</svg>
