<?xml version="1.0" encoding="utf-8"?>
<!-- Generator: Adobe Illustrator 18.0.0, SVG Export Plug-In . SVG Version: 6.00 Build 0)  -->
<!DOCTYPE svg PUBLIC "-//W3C//DTD SVG 1.1//EN" "http://www.w3.org/Graphics/SVG/1.1/DTD/svg11.dtd">
<svg version="1.1" id="Layer_1" xmlns="http://www.w3.org/2000/svg" xmlns:xlink="http://www.w3.org/1999/xlink" x="0px" y="0px"
	 viewBox="0 0 953 662" enable-background="new 0 0 953 662" xml:space="preserve">
<rect fill="#7B53A2" width="953" height="662"/>
<rect y="559.5" fill="#4BBFA6" width="953" height="102.5"/>
<g enable-background="new    ">
	<path fill="#FFFFFF" d="M32.8,198.5v-44.9h24.6v5.6H39.2V173h15.9v5.6H39.2V193h19v5.6H32.8z"/>
	<path fill="#FFFFFF" d="M65.2,172.9c0-5.3,4.5-10.1,12.4-10.1c4.9,0,8.8,1.7,11,4.1l-4.1,4.2c-1.5-1.7-4.2-3-7.1-3
		c-4,0-5.9,2-5.9,4.5c0,7.2,17.5,4.4,17.5,16.3c0,4.8-4,10.3-13,10.3c-6.4,0-10.9-2.5-13-4.7l3.8-4.6c2,2,5.4,4,9.5,4
		c4.4,0,6.3-2.2,6.3-4.8C82.6,182,65.2,184.7,65.2,172.9z"/>
	<path fill="#FFFFFF" d="M98.2,188.6v-20.3h-5v-4l5-1.3l2-8.9h4.2v9.2h9.4v5h-9.4v20.2c0,3.5,1.8,5,4.7,5c2.5,0,4.2-0.6,5.2-1.3
		l1.7,4.9c-1.3,0.8-3.7,1.8-8.4,1.8C101.7,198.9,98.2,195.8,98.2,188.6z"/>
	<path fill="#FFFFFF" d="M145.6,173.8v15.4c0,2.8,0.9,4.5,3.1,4.5h1v4.5c-0.8,0.4-1.8,0.6-2.7,0.6c-3.5,0-5.5-1.8-6.4-4.2h-0.3
		c-1.6,1.9-4.4,4.5-10,4.5c-6.6,0-10.2-4.6-10.2-9.4c0-7.9,7.6-11.7,19.6-11.4v-3.5c0-5.2-2.6-6.7-6.7-6.7c-4.3,0-6.4,2.4-7.4,4.2
		l-4.5-3.5c1.3-1.7,4.7-6,12.1-6C140.9,162.7,145.6,166,145.6,173.8z M139.6,183c-7.7-0.4-13.3,1.5-13.3,6.1c0,2.8,2,5,5.6,5
		c3.5,0,6.3-2,7.7-4.2V183z"/>
	<path fill="#FFFFFF" d="M192.7,155.1c-1.3-0.4-2.8-0.6-4.5-0.6c-3.1,0-4.3,1.5-4.3,4.5v4.4h8.6v4.7h-8.8v30.5h-6.3V168h-5.6v-4.7
		h5.8v-4.5c0-5.6,3.4-9.7,10.8-9.7c2.4,0,4.1,0.3,5.4,0.7L192.7,155.1z"/>
	<path fill="#FFFFFF" d="M198.6,163.3h6.3v22.9c0,5.2,2.3,7.7,6.9,7.7c4.7,0,7.8-2.9,8.1-7.2v-23.4h6.3v35.2H221l-1-3.5h-0.3
		c-1.3,1.7-4.4,4.2-9.9,4.2c-7.3,0-11.2-3.8-11.3-12V163.3z"/>
	<path fill="#FFFFFF" d="M263.8,198.5h-6.3v-22.9c0-4.8-2.4-7.6-6.8-7.6c-3.9,0-6.9,2.5-8.1,5.7v24.8h-6.3v-35.2h4.9l1.3,3.6h0.3
		c1.3-1.7,4.9-4.4,9.9-4.4c7,0,11.1,3.8,11.3,11.6V198.5z"/>
	<path fill="#FFFFFF" d="M287.2,162.7c5.6,0,9.1,2.1,10.7,4.1l-4.2,4.4c-1.2-1.3-3.2-3.1-6.7-3.1c-5.2,0-8.6,3.4-8.6,12.6
		s3.2,13,8.6,13c3.2,0,5.3-1.4,6.6-3l4,4.1c-1.6,1.9-4.7,4.3-11.1,4.3c-8.9,0-14.6-5.1-14.6-17.7
		C271.8,168.6,278.3,162.7,287.2,162.7z"/>
	<path fill="#FFFFFF" d="M308.7,149.1c2.4,0,4.2,1.8,4.2,4.3c0,2.3-1.8,4.1-4.2,4.1c-2.3,0-4.2-1.8-4.2-4.1
		C304.5,150.9,306.4,149.1,308.7,149.1z M305.7,163.3h6.3v35.2h-6.3V163.3z"/>
	<path fill="#FFFFFF" d="M321.2,181.1c0-10.9,4.2-18.4,15.2-18.4c11.1,0,14.9,7.2,14.9,18.1c0,10.9-4.2,18.4-15.2,18.4
		C324.9,199.1,321.2,191.9,321.2,181.1z M336.5,193.9c6.1,0,8.3-4.2,8.3-12.7c0-8.8-2.5-13.2-8.7-13.2c-6,0-8.3,4.2-8.3,12.7
		C327.8,189.4,330.3,193.9,336.5,193.9z M336,158.7l-3.6-2.8l11.2-8.7l5.9,3.4L336,158.7z"/>
	<path fill="#FFFFFF" d="M387,198.5h-6.3v-22.9c0-4.8-2.4-7.6-6.8-7.6c-3.9,0-6.9,2.5-8.1,5.7v24.8h-6.3v-35.2h4.9l1.3,3.6h0.3
		c1.3-1.7,4.9-4.4,9.9-4.4c7,0,11.1,3.8,11.3,11.6V198.5z"/>
	<path fill="#FFFFFF" d="M440.9,195.6c-2.5,1.9-6.1,3.4-11.6,3.4c-10.4,0-15.9-5.4-15.9-18.2c0-12.4,6.9-18.1,15.4-18.1
		c8.5,0,13.2,5.5,13.2,14c0,1.7-0.1,3.8-0.3,6.1h-22c0.4,7.7,3.6,11,10.4,11c3.6,0,6.6-1.5,8.1-2.9L440.9,195.6z M419.7,178h16.1
		c0.1-1,0.1-1.6,0.1-1.9c-0.1-5.3-2.4-8.3-7.5-8.3C423.9,167.9,420.1,170.8,419.7,178z"/>
	<path fill="#FFFFFF" d="M449.3,172.9c0-5.3,4.5-10.1,12.4-10.1c4.9,0,8.8,1.7,11,4.1l-4.1,4.2c-1.5-1.7-4.2-3-7.1-3
		c-4,0-5.9,2-5.9,4.5c0,7.2,17.5,4.4,17.5,16.3c0,4.8-4,10.3-13,10.3c-6.4,0-10.9-2.5-13-4.7l3.8-4.6c2,2,5.4,4,9.5,4
		c4.4,0,6.3-2.2,6.3-4.8C466.7,182,449.3,184.7,449.3,172.9z"/>
	<path fill="#FFFFFF" d="M482.2,188.6v-20.3h-5v-4l5-1.3l2-8.9h4.2v9.2h9.4v5h-9.4v20.2c0,3.5,1.8,5,4.7,5c2.5,0,4.2-0.6,5.2-1.3
		l1.7,4.9c-1.3,0.8-3.7,1.8-8.4,1.8C485.7,198.9,482.2,195.8,482.2,188.6z"/>
	<path fill="#FFFFFF" d="M529.6,173.8v15.4c0,2.8,0.9,4.5,3.1,4.5h1v4.5c-0.8,0.4-1.8,0.6-2.7,0.6c-3.5,0-5.5-1.8-6.4-4.2h-0.3
		c-1.6,1.9-4.4,4.5-10,4.5c-6.6,0-10.2-4.6-10.2-9.4c0-7.9,7.6-11.7,19.6-11.4v-3.5c0-5.2-2.6-6.7-6.7-6.7c-4.3,0-6.4,2.4-7.4,4.2
		l-4.5-3.5c1.3-1.7,4.7-6,12.1-6C525,162.7,529.6,166,529.6,173.8z M523.6,183c-7.7-0.4-13.3,1.5-13.3,6.1c0,2.8,2,5,5.6,5
		c3.5,0,6.3-2,7.7-4.2V183z"/>
	<path fill="#FFFFFF" d="M559.7,169.5c-1.3-0.3-2.7-0.5-4-0.5c-3.3,0-6.7,1.3-8.5,4v25.5h-6.3v-35.2h4.9l1.3,4.3h0.3
		c1.5-2.8,4.7-4.9,8.9-4.9c1.5,0,2.6,0.1,3.4,0.3V169.5z"/>
	<path fill="#FFFFFF" d="M588.7,173.8v15.4c0,2.8,0.9,4.5,3.1,4.5h1v4.5c-0.8,0.4-1.8,0.6-2.7,0.6c-3.5,0-5.5-1.8-6.4-4.2h-0.3
		c-1.6,1.9-4.4,4.5-10,4.5c-6.6,0-10.2-4.6-10.2-9.4c0-7.9,7.6-11.7,19.6-11.4v-3.5c0-5.2-2.6-6.7-6.7-6.7c-4.3,0-6.4,2.4-7.4,4.2
		l-4.5-3.5c1.3-1.7,4.7-6,12.1-6C584.1,162.7,588.7,166,588.7,173.8z M582.7,183c-7.7-0.4-13.3,1.5-13.3,6.1c0,2.8,2,5,5.6,5
		c3.5,0,6.3-2,7.7-4.2V183z M576.8,158.7l-3.6-2.8l11.2-8.7l5.9,3.4L576.8,158.7z"/>
	<path fill="#FFFFFF" d="M638.4,149.9h6.3v48.6h-4.8l-1.2-3.4h-0.3c-1.3,1.8-4.4,4-9,4c-7.8,0-13-5.1-13-16.6
		c0-13.4,7.2-19.3,16.3-19.3c2.4,0,4.2,0.3,5.7,0.6V149.9z M638.5,189.1v-19.5c-1.2-0.6-3.5-1-5.1-1c-6.7,0-10.5,3.6-10.5,13.2
		c0,9,3.8,12,8.1,12C634.7,193.9,637.1,191.9,638.5,189.1z"/>
	<path fill="#FFFFFF" d="M659,149.1c2.4,0,4.2,1.8,4.2,4.3c0,2.3-1.8,4.1-4.2,4.1c-2.3,0-4.2-1.8-4.2-4.1
		C654.8,150.9,656.7,149.1,659,149.1z M656,163.3h6.3v35.2H656V163.3z"/>
	<path fill="#FFFFFF" d="M672.2,172.9c0-5.3,4.5-10.1,12.4-10.1c4.9,0,8.8,1.7,11,4.1l-4.1,4.2c-1.5-1.7-4.2-3-7.1-3
		c-4,0-5.9,2-5.9,4.5c0,7.2,17.5,4.4,17.5,16.3c0,4.8-4,10.3-13,10.3c-6.4,0-10.9-2.5-13-4.7l3.8-4.6c2,2,5.4,4,9.5,4
		c4.4,0,6.3-2.2,6.3-4.8C689.6,182,672.2,184.7,672.2,172.9z"/>
	<path fill="#FFFFFF" d="M715.9,198.6c-1.9,0-3.8-0.2-5.5-0.5v12.9h-6.3v-47.6h4.7l1.3,3.4h0.3c1.6-2,4.5-4,9-4
		c7.9,0,13.1,5.5,13.1,16.8C732.5,192,725.6,198.6,715.9,198.6z M715.4,193.2c6.9,0,10.6-4,10.6-13.1c0-9.1-4-12.2-8.4-12.2
		c-3.6,0-6,2.2-7.2,4.2v20.2C711.9,193,714.2,193.2,715.4,193.2z"/>
	<path fill="#FFFFFF" d="M738.7,181.1c0-10.9,4.2-18.4,15.2-18.4c11.1,0,14.9,7.2,14.9,18.1c0,10.9-4.2,18.4-15.2,18.4
		C742.5,199.1,738.7,191.9,738.7,181.1z M754,193.9c6.1,0,8.3-4.2,8.3-12.7c0-8.8-2.5-13.2-8.7-13.2c-6,0-8.3,4.2-8.3,12.7
		C745.3,189.4,747.8,193.9,754,193.9z"/>
	<path fill="#FFFFFF" d="M804.5,198.5h-6.3v-22.9c0-4.8-2.4-7.6-6.8-7.6c-3.9,0-6.9,2.5-8.1,5.7v24.8H777v-35.2h4.9l1.3,3.6h0.3
		c1.3-1.7,4.9-4.4,9.9-4.4c7,0,11.1,3.8,11.3,11.6V198.5z"/>
	<path fill="#FFFFFF" d="M818.6,149.1c2.4,0,4.2,1.8,4.2,4.3c0,2.3-1.8,4.1-4.2,4.1c-2.3,0-4.2-1.8-4.2-4.1
		C814.5,150.9,816.3,149.1,818.6,149.1z M815.7,163.3h6.3v35.2h-6.3V163.3z"/>
	<path fill="#FFFFFF" d="M833.1,149.9h6.3v15.6h0.3c1.2-1,4-2.5,8-2.5c7.6,0,13.6,4.6,13.6,17c0,11.2-5.8,19.2-17.5,19.2
		c-4.8,0-8.2-0.8-10.6-2V149.9z M854.9,180.7c0-9.5-4.2-12.3-8.8-12.3c-2.6,0-5.2,1.2-6.6,3V193c1.3,0.5,3.1,0.8,5,0.8
		C850.7,193.9,854.9,189.6,854.9,180.7z"/>
	<path fill="#FFFFFF" d="M875.9,149.9v39.4c0,2.9,1.1,4.2,3.5,4.2c1.2,0,1.9-0.3,2.5-0.5v5.2c-1.3,0.5-2.9,0.8-4.5,0.8
		c-5.1,0-7.7-3-7.7-8v-41.1H875.9z"/>
	<path fill="#FFFFFF" d="M913.9,195.6c-2.5,1.9-6.1,3.4-11.7,3.4c-10.4,0-15.9-5.4-15.9-18.2c0-12.4,6.9-18.1,15.4-18.1
		c8.5,0,13.2,5.5,13.2,14c0,1.7-0.1,3.8-0.3,6.1h-22c0.4,7.7,3.6,11,10.4,11c3.6,0,6.6-1.5,8.1-2.9L913.9,195.6z M892.8,178h16.1
		c0.1-1,0.1-1.6,0.1-1.9c-0.1-5.3-2.4-8.3-7.5-8.3C897,167.9,893.1,170.8,892.8,178z"/>
</g>
<g enable-background="new    ">
	<path fill="#FFFFFF" d="M93.1,357.9c0,15.3-8.1,28.5-32,28.5h-6.8v29.1H36.5v-81.8h28C81.1,333.6,93.1,339.8,93.1,357.9z
		 M54.3,348.7v23.1h5.8c11.9,0,14.5-5.1,14.5-11.4c0-8.1-4-11.7-13.1-11.7H54.3z"/>
	<path fill="#FFFFFF" d="M133,333.6c18.1,0,28.4,6.9,28.4,24c0,14.2-7.7,20.9-17.3,22.8v0.5c4.3,2.1,7,5.1,10.9,12l12.5,22.5h-21.2
		l-13.5-26.6c-1.5-2.9-3.7-3.9-7.5-3.9H124v30.5h-17.6v-81.8H133z M124,370.8h6.8c9.5,0,12.5-4.1,12.5-11.7
		c0-7.5-4.4-10.9-12.3-10.9h-7V370.8z"/>
	<path fill="#FFFFFF" d="M207.1,416.6c-20.4,0-33.3-11-33.3-41.6c0-29.8,14.5-42.6,34.3-42.6c20.3,0,33.5,11.2,33.5,41.7
		C241.7,403.9,227.1,416.6,207.1,416.6z M208.2,401.8c9.3,0,15.1-6.7,15.1-26.9c0-20.4-6.2-27.7-16.1-27.7
		c-8.8,0-14.9,6.3-14.9,26.6C192.2,394.5,198.3,401.8,208.2,401.8z M208.3,327.6l-9.1-7.7l21.5-17.7l15.3,9L208.3,327.6z"/>
	<path fill="#FFFFFF" d="M282.8,388.9l-14.5,26.5h-20.5l26.3-41.8l-24.9-40h21.5l13.8,25.1h0.5l13.1-25.1h20.5l-24.7,40l26.2,41.8
		h-21.4l-15.3-26.5H282.8z"/>
	<path fill="#FFFFFF" d="M331,333.6h17.9v81.8H331V333.6z"/>
	<path fill="#FFFFFF" d="M412.4,377.7l15.3-44.1h26.7v81.8h-17v-60.6h-0.5l-18.2,50.8h-14.7l-18-50.8h-0.7v60.6h-16.3v-81.8h27.4
		l15.5,44.1H412.4z"/>
	<path fill="#FFFFFF" d="M515.3,333.6l24.9,81.8h-18.7l-5.1-18.8h-27.4l-5.3,18.8h-18l24.8-81.8H515.3z M493,381.9h19.3l-3.2-11.4
		c-3.2-11.3-4.8-17.3-6.2-24.5h-0.5c-1.4,7-3.2,13.7-6.1,24L493,381.9z"/>
	<path fill="#FFFFFF" d="M594.9,377.7l15.3-44.1H637v81.8h-17v-60.6h-0.5l-18.2,50.8h-14.7l-18-50.8h-0.7v60.6h-16.3v-81.8h27.4
		l15.5,44.1H594.9z"/>
	<path fill="#FFFFFF" d="M656.1,415.4v-81.8h48.4v14.7h-30.7v18.2h26.4v14.7h-26.4v19.5h32.1v14.7H656.1z"/>
	<path fill="#FFFFFF" d="M737.9,355.9c0.8,8.2,1.2,14.5,1.2,28.6v30.9h-17v-81.8h21.4l16.7,32.2c4.1,7.8,8.5,16.9,11.6,25.1h0.5
		c-0.9-11.4-0.9-22.8-0.9-31.4v-25.9h16.9v81.8h-20.9l-18-34.6c-4.1-7.9-7.5-16-10.9-25H737.9z"/>
	<path fill="#FFFFFF" d="M818.5,348.3h-20.3v-14.7h58.5v14.7h-20.3v67.1h-17.9V348.3z"/>
	<path fill="#FFFFFF" d="M866.5,415.4v-81.8h48.4v14.7h-30.7v18.2h26.4v14.7h-26.4v19.5h32.1v14.7H866.5z"/>
</g>
<g>
	<path fill="#FFFFFF" d="M466.1,636.1c-0.7-1.6-1.1-3.3-1.2-5c0.5-2.5,0.6-5,0.4-7.6c0.1-1.3,0-2.5-0.2-3.8l0,0
		c0.1-1.1-0.6-2.2-1.8-2.3c-0.1,0-0.2,0-0.2,0c-1.3-0.5-3.2,3.5-3.2,3.5c0-0.2,0-0.5,0-0.7c-0.4-5.2-3.3-6-3.3-6
		c-4.3-2.3-3.8,4.2-3.8,4.2c-4.8-5.8-8-3.5-8-3.5c-6,5.3,2,8.6,2,8.6c-1-0.4-2.1-0.4-3.1-0.2l0,0l0,0c-0.6,0.2-1.1,0.7-1.3,1.3
		c-0.5,0.7-0.6,1.6-0.3,2.5c0.1,0.6,0.5,1.2,1.1,1.4l-0.1,0c1,0.9,2.2,1.4,3.5,1.6c-1.2,0.1-2.4,0.7-3.2,1.6c-0.6,1-0.2,2.3,0.8,2.9
		c0,0,0,0,0,0c0.2,0.1,0.4,0.3,0.5,0.4c0,0,0.1,0,0.1,0l0,0l0.1,0c3.3,0.9,6.6,1.2,10,1l0,0c1.4,0,2.8,0.3,4.1,0.9
		c9.7,6,10.1,24.8,10.1,24.8l1.8-0.5C470.9,652.8,469.3,644.2,466.1,636.1z"/>
	<path fill="#FFFFFF" d="M511.2,627.1c0.3-0.8,0.2-1.8-0.3-2.5c-0.2-0.6-0.7-1.1-1.3-1.3l0,0l0,0c-1-0.3-2.1-0.2-3.1,0.2
		c0,0,8-3.3,2-8.6c0,0-3.2-2.3-8,3.5c0,0,0.5-6.5-3.8-4.2c0,0-2.9,0.8-3.3,6c0,0.2,0,0.4,0,0.7c0,0-1.9-4-3.2-3.5c-1.1,0-2,1-2,2.1
		c0,0.1,0,0.2,0,0.2l0,0c-0.2,1.2-0.3,2.5-0.2,3.8c-0.3,2.5-0.2,5.1,0.4,7.6c-0.2,1.7-0.6,3.4-1.2,5c-3.2,8.1-4.8,16.7-4.7,25.4
		l1.8,0.5c0,0,0.4-18.8,10.1-24.8c1.3-0.6,2.7-0.9,4.1-0.9l0,0c3.4,0.2,6.8-0.1,10-1l0.1,0l0,0l0,0l0,0l0,0l0,0
		c0.2-0.1,0.4-0.3,0.5-0.4c1-0.6,1.4-1.8,0.8-2.9c0,0,0,0,0,0c-0.8-1-2-1.5-3.2-1.6c1.3-0.2,2.5-0.7,3.5-1.6l-0.1,0
		C510.6,628.2,511.1,627.7,511.2,627.1z"/>
	<path fill="#FFFFFF" d="M494.1,607.8c-0.4-3.5-6.5-2.8-6.5-2.8c2-1.3,2.9-3.9,2.1-6.2c-1.2-5.6-7-1.2-7-1.2c0-8.1-2.7-9.3-6.7-9
		c-5.9,0.5-5.3,9-5.3,9c-6.2-3.9-7.4,0.7-7.4,0.7c-0.5,1.5-0.3,3.2,0.5,4.6c0.4,1.1,1,2,1.7,2.9l0,0.1c-3.2-1.5-4.7-1.3-5.4-0.9
		l0-0.1c-1.1,0.8-1.7,2.2-1.5,3.5l0,0l0,0.1c0.3,1.1,1.1,2.1,2.1,2.6l-0.4-0.1c0,0,4.1,3.4,6,4.8c3,3.3,5.3,7.2,6.6,11.5l0,0
		c0,0,1.3,9,1.8,19.9c0.1,5.8,0.1,11.1,0,13.4c0,0.3,0,0.5,0,0.8l0,0l0,0.4l3.9-0.5c-1.9-4.2,1.8-35.5,1.8-35.5
		c0.6-5.7,4.2-10.7,9.3-13.2C495.3,610.7,494.1,607.8,494.1,607.8z"/>
</g>
</svg>
