<?xml version="1.0" encoding="utf-8"?>
<!-- Generator: Adobe Illustrator 17.0.0, SVG Export Plug-In . SVG Version: 6.00 Build 0)  -->
<!DOCTYPE svg PUBLIC "-//W3C//DTD SVG 1.1//EN" "http://www.w3.org/Graphics/SVG/1.1/DTD/svg11.dtd">
<svg version="1.1" id="Layer_1" xmlns="http://www.w3.org/2000/svg" xmlns:xlink="http://www.w3.org/1999/xlink" x="0px" y="0px"
	 width="953px" height="662px" viewBox="0 0 953 662" enable-background="new 0 0 953 662" xml:space="preserve">
<rect fill="#7B53A2" width="953" height="662"/>
<rect y="559.519" fill="#4BBFA6" width="953" height="102.481"/>
<text transform="matrix(1 0 0 1 27.0001 198.5308)"><tspan x="0" y="0" fill="#FFFFFF" font-family="'KohinoorBangla-Medium'" font-size="64.0177">Esta función estará disponible</tspan><tspan x="0" y="216.907" fill="#FFFFFF" font-family="'KohinoorBangla-Bold'" font-size="116.7381">PRÓXIMAMENTE</tspan></text>
<g>
	<path fill="#FFFFFF" d="M466.075,636.082c-0.656-1.584-1.069-3.258-1.226-4.965c0.521-2.486,0.643-5.039,0.362-7.564
		c0.085-1.266,0.003-2.537-0.245-3.781l-0.026,0.043c0.147-1.128-0.648-2.162-1.776-2.31c-0.08-0.01-0.16-0.016-0.24-0.017
		c-1.289-0.496-3.162,3.471-3.162,3.471c-0.008-0.228-0.018-0.451-0.035-0.663c-0.378-5.219-3.288-5.983-3.288-5.983
		c-4.32-2.329-3.822,4.154-3.822,4.154c-4.818-5.816-7.976-3.491-7.976-3.491c-5.983,5.32,1.994,8.641,1.994,8.641
		c-0.996-0.368-2.08-0.427-3.11-0.17l0.003-0.013l-0.029,0.022c-0.625,0.2-1.12,0.68-1.339,1.299
		c-0.512,0.717-0.63,1.644-0.313,2.466c0.102,0.635,0.523,1.174,1.115,1.427l-0.062,0.013c0.99,0.86,2.212,1.408,3.513,1.576
		c-1.243,0.093-2.396,0.682-3.198,1.635c-0.583,1.01-0.238,2.302,0.773,2.886c0.014,0.008,0.028,0.016,0.043,0.024
		c0.177,0.13,0.356,0.268,0.534,0.406c0.029,0.016,0.057,0.029,0.085,0.045l0,0l0.077,0.041c3.259,0.91,6.65,1.25,10.025,1.005
		l-0.033,0.019c1.405-0.036,2.798,0.257,4.069,0.855C468.46,643.153,468.9,662,468.9,662l1.827-0.5
		C470.887,652.802,469.306,644.159,466.075,636.082z"/>
	<path fill="#FFFFFF" d="M511.155,627.062c0.317-0.824,0.199-1.751-0.315-2.469c-0.219-0.613-0.71-1.089-1.329-1.289l-0.037-0.028
		l0.004,0.017c-1.031-0.257-2.115-0.198-3.112,0.17c0,0,7.974-3.325,1.994-8.641c0,0-3.158-2.325-7.976,3.492
		c0,0,0.498-6.483-3.82-4.158c0,0-2.914,0.768-3.29,5.983c-0.014,0.215-0.026,0.435-0.035,0.666c0,0-1.873-3.967-3.162-3.47
		c-1.138,0.015-2.048,0.95-2.033,2.088c0.001,0.079,0.007,0.158,0.017,0.236l-0.027-0.044c-0.248,1.245-0.33,2.517-0.245,3.783
		c-0.28,2.522-0.158,5.073,0.362,7.556c-0.158,1.709-0.57,3.384-1.224,4.971c-3.23,8.078-4.811,16.72-4.651,25.418l1.825,0.504
		c0,0,0.439-18.831,10.102-24.843c1.274-0.601,2.672-0.895,4.08-0.859l-0.038-0.022c3.377,0.247,6.77-0.094,10.031-1.006
		l0.077-0.038l0.001,0.001l0.048-0.025l0.023-0.011l0.002-0.002l0.012-0.006c0.179-0.138,0.358-0.276,0.533-0.41
		c1.023-0.556,1.402-1.837,0.845-2.861c-0.008-0.015-0.017-0.03-0.025-0.045c-0.801-0.953-1.952-1.544-3.194-1.637
		c1.297-0.17,2.516-0.717,3.506-1.574l-0.066-0.014C510.63,628.24,511.052,627.7,511.155,627.062z"/>
	<path fill="#FFFFFF" d="M494.072,607.843c-0.351-3.52-6.513-2.817-6.513-2.817c2.011-1.342,2.876-3.863,2.114-6.157
		c-1.231-5.633-7.039-1.231-7.039-1.231c0-8.088-2.726-9.338-6.683-8.994c-5.859,0.51-5.284,8.994-5.284,8.994
		c-6.157-3.873-7.389,0.703-7.389,0.703c-0.492,1.54-0.299,3.217,0.531,4.605c0.434,1.057,1.014,2.047,1.723,2.942l0.011,0.103
		c-3.237-1.504-4.728-1.328-5.406-0.927l0.022-0.089c-1.128,0.799-1.717,2.159-1.528,3.528l0.002,0.032l0.014,0.065
		c0.262,1.148,1.051,2.105,2.127,2.581l-0.409-0.141c0,0,4.15,3.397,5.992,4.803c3.036,3.29,5.29,7.222,6.595,11.505l-0.037,0.011
		c0,0,1.291,9.018,1.767,19.898c0.079,5.758,0.057,11.138,0.041,13.435c-0.012,0.253-0.017,0.51-0.03,0.762l0.024-0.009
		l-0.004,0.428l3.871-0.533c-1.935-4.223,1.76-35.546,1.76-35.546c0.632-5.71,4.156-10.695,9.328-13.197
		C495.303,610.66,494.072,607.843,494.072,607.843z"/>
</g>
</svg>
