<?xml version="1.0" encoding="UTF-8" standalone="no"?>
<svg width="256px" height="408px" viewBox="0 0 256 408" version="1.1" xmlns="http://www.w3.org/2000/svg" xmlns:xlink="http://www.w3.org/1999/xlink" xmlns:sketch="http://www.bohemiancoding.com/sketch/ns">
    <!-- Generator: Sketch 3.3.3 (12081) - http://www.bohemiancoding.com/sketch -->
    <title>dedalo_sprites</title>
    <desc>Created with Sketch.</desc>
    <defs></defs>
    <g id="Page-1" stroke="none" stroke-width="1" fill="none" fill-rule="evenodd" sketch:type="MSPage">
        <g id="Imported-Layers" sketch:type="MSLayerGroup" transform="translate(4.000000, 4.000000)">
            <path d="M12,115.2 C9.5,115.2 7.29,113.92 6,111.98 C6.03,109.99 10,108.9 12,108.9 C13.99,108.9 17.97,109.99 18,111.98 C16.71,113.92 14.5,115.2 12,115.2 M12,101 C13.66,101 15,102.34 15,104 C15,105.66 13.66,107 12,107 C10.34,107 9,105.66 9,104 C9,102.34 10.34,101 12,101 M12,98 C6.48,98 2,102.48 2,108 C2,113.52 6.48,118 12,118 C17.52,118 22,113.52 22,108 C22,102.48 17.52,98 12,98" id="Fill-1" fill="#8FC9F9" sketch:type="MSShapeGroup"></path>
            <path d="M204,128 C197.376,128 192,133.376 192,140 C192,146.624 197.376,152 204,152 C210.624,152 216,146.624 216,140 C216,133.376 210.624,128 204,128 M204,131.6 C205.992,131.6 207.6,133.208 207.6,135.2 C207.6,137.192 205.992,138.8 204,138.8 C202.008,138.8 200.4,137.192 200.4,135.2 C200.4,133.208 202.008,131.6 204,131.6 M204,148.64 C201,148.64 198.348,147.104 196.8,144.776 C196.836,142.388 201.6,141.08 204,141.08 C206.388,141.08 211.164,142.388 211.2,144.776 C209.652,147.104 207,148.64 204,148.64" id="Fill-2" fill="#FFFFFF" sketch:type="MSShapeGroup"></path>
            <path d="M236,0 C229.376,0 224,5.376 224,12 C224,18.624 229.376,24 236,24 C242.624,24 248,18.624 248,12 C248,5.376 242.624,0 236,0 M236,3.6 C237.992,3.6 239.6,5.208 239.6,7.2 C239.6,9.192 237.992,10.8 236,10.8 C234.008,10.8 232.4,9.192 232.4,7.2 C232.4,5.208 234.008,3.6 236,3.6 M236,20.64 C233,20.64 230.348,19.104 228.8,16.776 C228.836,14.388 233.6,13.08 236,13.08 C238.388,13.08 243.164,14.388 243.2,16.776 C241.652,19.104 239,20.64 236,20.64" id="Fill-3" fill="#1976D1" sketch:type="MSShapeGroup"></path>
            <path d="M50,15.75 L50,10.75 C50,7.68 48.36,5.11 45.5,4.43 L45.5,3.75 C45.5,2.92 44.83,2.25 44,2.25 C43.17,2.25 42.5,2.92 42.5,3.75 L42.5,4.43 C39.63,5.11 38,7.67 38,10.75 L38,15.75 L36,17.75 L36,18.75 L52,18.75 L52,17.75 L50,15.75 L50,15.75 Z M44,21.75 C45.1,21.75 46,20.85 46,19.75 L42,19.75 C42,20.85 42.89,21.75 44,21.75 L44,21.75 Z" id="Fill-4" fill="#1976D1" sketch:type="MSShapeGroup"></path>
            <path d="M50,143.75 L50,138.75 C50,135.68 48.36,133.11 45.5,132.43 L45.5,131.75 C45.5,130.92 44.83,130.25 44,130.25 C43.17,130.25 42.5,130.92 42.5,131.75 L42.5,132.43 C39.63,133.11 38,135.67 38,138.75 L38,143.75 L36,145.75 L36,146.75 L52,146.75 L52,145.75 L50,143.75 L50,143.75 Z M44,149.75 C45.1,149.75 46,148.85 46,147.75 L42,147.75 C42,148.85 42.89,149.75 44,149.75 L44,149.75 Z" id="Fill-5" fill="#FFFFFF" sketch:type="MSShapeGroup"></path>
            <path d="M9.755,14.255 C7.265,14.255 5.255,12.245 5.255,9.755 C5.255,7.265 7.265,5.255 9.755,5.255 C12.245,5.255 14.255,7.265 14.255,9.755 C14.255,12.245 12.245,14.255 9.755,14.255 M15.755,14.255 L14.965,14.255 L14.685,13.985 C15.665,12.845 16.255,11.365 16.255,9.755 C16.255,6.165 13.345,3.255 9.755,3.255 C6.165,3.255 3.255,6.165 3.255,9.755 C3.255,13.345 6.165,16.255 9.755,16.255 C11.365,16.255 12.845,15.665 13.985,14.685 L14.255,14.965 L14.255,15.755 L19.255,20.745 L20.745,19.255 L15.755,14.255" id="Fill-6" fill="#1976D1" sketch:type="MSShapeGroup"></path>
            <path d="M9.755,142.255 C7.265,142.255 5.255,140.245 5.255,137.755 C5.255,135.265 7.265,133.255 9.755,133.255 C12.245,133.255 14.255,135.265 14.255,137.755 C14.255,140.245 12.245,142.255 9.755,142.255 M15.755,142.255 L14.965,142.255 L14.685,141.985 C15.665,140.845 16.255,139.365 16.255,137.755 C16.255,134.165 13.345,131.255 9.755,131.255 C6.165,131.255 3.255,134.165 3.255,137.755 C3.255,141.345 6.165,144.255 9.755,144.255 C11.365,144.255 12.845,143.665 13.985,142.685 L14.255,142.965 L14.255,143.755 L19.255,148.745 L20.745,147.255 L15.755,142.255" id="Fill-7" fill="#FFFFFF" sketch:type="MSShapeGroup"></path>
            <path d="M146,18 C144.9,18 144.01,18.9 144.01,20 C144.01,21.1 144.9,22 146,22 C147.1,22 148,21.1 148,20 C148,18.9 147.1,18 146,18 L146,18 Z M130,2 L130,4 L132,4 L135.6,11.59 L134.25,14.04 C134.09,14.32 134,14.65 134,15 C134,16.1 134.9,17 136,17 L148,17 L148,15 L136.42,15 C136.28,15 136.17,14.89 136.17,14.75 L136.2,14.63 L137.1,13 L144.55,13 C145.3,13 145.96,12.59 146.3,11.97 L149.88,5.48 C149.96,5.34 150,5.17 150,5 C150,4.45 149.55,4 149,4 L134.21,4 L133.27,2 L130,2 L130,2 Z M136,18 C134.9,18 134.01,18.9 134.01,20 C134.01,21.1 134.9,22 136,22 C137.1,22 138,21.1 138,20 C138,18.9 137.1,18 136,18 L136,18 Z" id="Fill-8" fill="#1976D1" sketch:type="MSShapeGroup"></path>
            <path d="M146,146 C144.9,146 144.01,146.9 144.01,148 C144.01,149.1 144.9,150 146,150 C147.1,150 148,149.1 148,148 C148,146.9 147.1,146 146,146 L146,146 Z M130,130 L130,132 L132,132 L135.6,139.59 L134.25,142.04 C134.09,142.32 134,142.65 134,143 C134,144.1 134.9,145 136,145 L148,145 L148,143 L136.42,143 C136.28,143 136.17,142.89 136.17,142.75 L136.2,142.63 L137.1,141 L144.55,141 C145.3,141 145.96,140.59 146.3,139.97 L149.88,133.48 C149.96,133.34 150,133.17 150,133 C150,132.45 149.55,132 149,132 L134.21,132 L133.27,130 L130,130 L130,130 Z M136,146 C134.9,146 134.01,146.9 134.01,148 C134.01,149.1 134.9,150 136,150 C137.1,150 138,149.1 138,148 C138,146.9 137.1,146 136,146 L136,146 Z" id="Fill-9" fill="#FFFFFF" sketch:type="MSShapeGroup"></path>
            <path d="M110.19,14.19 L102,18 L105.81,9.81 L114,6 L110.19,14.19 L110.19,14.19 Z M108,2 C102.48,2 98,6.48 98,12 C98,17.52 102.48,22 108,22 C113.52,22 118,17.52 118,12 C118,6.48 113.52,2 108,2 L108,2 Z M108,10.9 C107.39,10.9 106.9,11.39 106.9,12 C106.9,12.61 107.39,13.1 108,13.1 C108.61,13.1 109.1,12.61 109.1,12 C109.1,11.39 108.61,10.9 108,10.9 L108,10.9 Z" id="Fill-10" fill="#1976D1" sketch:type="MSShapeGroup"></path>
            <path d="M110.19,142.19 L102,146 L105.81,137.81 L114,134 L110.19,142.19 L110.19,142.19 Z M108,130 C102.48,130 98,134.48 98,140 C98,145.52 102.48,150 108,150 C113.52,150 118,145.52 118,140 C118,134.48 113.52,130 108,130 L108,130 Z M108,138.9 C107.39,138.9 106.9,139.39 106.9,140 C106.9,140.61 107.39,141.1 108,141.1 C108.61,141.1 109.1,140.61 109.1,140 C109.1,139.39 108.61,138.9 108,138.9 L108,138.9 Z" id="Fill-11" fill="#FFFFFF" sketch:type="MSShapeGroup"></path>
            <path d="M79.2,13 C79.2,11.233 77.767,9.8 76,9.8 C74.233,9.8 72.8,11.233 72.8,13 C72.8,14.767 74.233,16.2 76,16.2 C77.767,16.2 79.2,14.767 79.2,13 M81,13 C81,15.76 78.76,18 76,18 C73.24,18 71,15.76 71,13 C71,10.24 73.24,8 76,8 C78.76,8 81,10.24 81,13 M86,19 L86,7 C86,5.9 85.1,5 84,5 L80.83,5 L79,3 L73,3 L71.17,5 L68,5 C66.9,5 66,5.9 66,7 L66,19 C66,20.1 66.9,21 68,21 L84,21 C85.1,21 86,20.1 86,19" id="Fill-12" fill="#1976D1" sketch:type="MSShapeGroup"></path>
            <path d="M79.2,141 C79.2,139.233 77.767,137.8 76,137.8 C74.233,137.8 72.8,139.233 72.8,141 C72.8,142.767 74.233,144.2 76,144.2 C77.767,144.2 79.2,142.767 79.2,141 M81,141 C81,143.76 78.76,146 76,146 C73.24,146 71,143.76 71,141 C71,138.24 73.24,136 76,136 C78.76,136 81,138.24 81,141 M86,147 L86,135 C86,133.9 85.1,133 84,133 L80.83,133 L79,131 L73,131 L71.17,133 L68,133 C66.9,133 66,133.9 66,135 L66,147 C66,148.1 66.9,149 68,149 L84,149 C85.1,149 86,148.1 86,147" id="Fill-13" fill="#FFFFFF" sketch:type="MSShapeGroup"></path>
            <path d="M244,139 L231.83,139 L237.42,133.41 L236,132 L228,140 L236,148 L237.41,146.59 L231.83,141 L244,141 L244,139" id="Fill-14" fill="#FFFFFF" sketch:type="MSShapeGroup"></path>
            <path d="M12,175.847 L16.12,178.334 L15.027,173.647 L18.667,170.494 L13.873,170.087 L12,165.667 L10.127,170.087 L5.333,170.494 L8.973,173.647 L7.88,178.334 L12,175.847" id="Fill-15" fill="#FFFFFF" sketch:type="MSShapeGroup"></path>
            <path d="M24,334.4 C19,334.4 14.58,331.84 12,327.96 C12.06,323.98 20,321.8 24,321.8 C27.98,321.8 35.94,323.98 36,327.96 C33.42,331.84 29,334.4 24,334.4 M24,306 C27.32,306 30,308.68 30,312 C30,315.32 27.32,318 24,318 C20.68,318 18,315.32 18,312 C18,308.68 20.68,306 24,306 M24,300 C12.96,300 4,308.96 4,320 C4,331.04 12.96,340 24,340 C35.04,340 44,331.04 44,320 C44,308.96 35.04,300 24,300" id="Fill-16" fill="#FFFFFF" sketch:type="MSShapeGroup"></path>
            <path d="M47.2,205 C47.2,203.233 45.767,201.8 44,201.8 C42.233,201.8 40.8,203.233 40.8,205 C40.8,206.767 42.233,208.2 44,208.2 C45.767,208.2 47.2,206.767 47.2,205 M49,205 C49,207.76 46.76,210 44,210 C41.24,210 39,207.76 39,205 C39,202.24 41.24,200 44,200 C46.76,200 49,202.24 49,205 M54,211 L54,199 C54,197.9 53.1,197 52,197 L48.83,197 L47,195 L41,195 L39.17,197 L36,197 C34.9,197 34,197.9 34,199 L34,211 C34,212.1 34.9,213 36,213 L52,213 C53.1,213 54,212.1 54,211" id="Fill-17" fill="#C4C5C7" sketch:type="MSShapeGroup"></path>
            <path d="M47.2,237 C47.2,235.233 45.767,233.8 44,233.8 C42.233,233.8 40.8,235.233 40.8,237 C40.8,238.767 42.233,240.2 44,240.2 C45.767,240.2 47.2,238.767 47.2,237 M49,237 C49,239.76 46.76,242 44,242 C41.24,242 39,239.76 39,237 C39,234.24 41.24,232 44,232 C46.76,232 49,234.24 49,237 M54,243 L54,231 C54,229.9 53.1,229 52,229 L48.83,229 L47,227 L41,227 L39.17,229 L36,229 C34.9,229 34,229.9 34,231 L34,243 C34,244.1 34.9,245 36,245 L52,245 C53.1,245 54,244.1 54,243" id="Fill-18" fill="#8A8C8F" sketch:type="MSShapeGroup"></path>
            <path d="M161.51,21 L182.5,12 L161.51,3 L161.5,10 L176.5,12 L161.5,14 L161.51,21" id="Fill-19" fill="#1976D1" sketch:type="MSShapeGroup"></path>
            <path d="M65.51,213 L86.5,204 L65.51,195 L65.5,202 L80.5,204 L65.5,206 L65.51,213" id="Fill-20" fill="#C4C5C7" sketch:type="MSShapeGroup"></path>
            <path d="M12,228 C9.109,228 6.603,229.639 5.352,232.036 C2.343,232.36 0,234.906 0,238 C0,241.314 2.687,244 6,244 L19,244 C21.761,244 24,241.761 24,239 C24,236.36 21.947,234.221 19.355,234.036 C18.674,230.595 15.641,228 12,228 M7,237 L12,232 L17,237 L14,237 L14,241 L10,241 L10,237 L7,237" id="Fill-21" fill="#8A8C8F" sketch:type="MSShapeGroup"></path>
            <path d="M12,196 C9.109,196 6.603,197.639 5.352,200.036 C2.343,200.36 0,202.906 0,206 C0,209.314 2.687,212 6,212 L19,212 C21.761,212 24,209.761 24,207 C24,204.36 21.947,202.221 19.355,202.036 C18.674,198.595 15.641,196 12,196 M7,205 L12,200 L17,205 L14,205 L14,209 L10,209 L10,205 L7,205" id="Fill-22" fill="#C4C5C7" sketch:type="MSShapeGroup"></path>
            <path d="M95.46,338 L87.66,351.52 C89.06,351.82 90.5,352 92,352 C96.8,352 101.2,350.3 104.64,347.5 L97.32,334.8 L95.46,338 L95.46,338 Z M72.92,338 C74.76,343.84 79.22,348.52 84.92,350.68 L92.24,338 L72.92,338 L72.92,338 Z M85.08,332 L77.28,318.5 C74.02,322.06 72,326.78 72,332 C72,333.38 72.14,334.7 72.4,336 L87.38,336 L85.08,332 L85.08,332 Z M111.6,328 L96.62,328 L97.2,329 L106.72,345.5 C110,341.94 112,337.22 112,332 C112,330.62 111.86,329.3 111.6,328 L111.6,328 Z M111.08,326 C109.24,320.16 104.78,315.48 99.08,313.32 L91.76,326 L111.08,326 L111.08,326 Z M86.8,329 L96.34,312.48 C94.94,312.18 93.5,312 92,312 C87.2,312 82.8,313.7 79.36,316.5 L86.68,329.2 L86.8,329 L86.8,329 Z" id="Fill-23" fill="#8A8C8F" sketch:type="MSShapeGroup"></path>
            <path d="M92,362 C108.542,362 122,348.543 122,332 C122,315.457 108.542,302 92,302 C75.458,302 62,315.457 62,332 C62,348.543 75.458,362 92,362 L92,362 Z" id="Stroke-24" stroke="#1976D1" stroke-width="4" sketch:type="MSShapeGroup"></path>
            <path d="M204,20 C208.418,20 212,16.418 212,12 C212,7.582 208.418,4 204,4 C199.582,4 196,7.582 196,12 C196,16.418 199.582,20 204,20" id="Fill-25" fill="#1976D1" sketch:type="MSShapeGroup"></path>
            <path d="M207.192,8 L204,11.192 L200.808,8 L200,8.808 L203.192,12 L200,15.192 L200.808,16 L204,12.808 L207.192,16 L208,15.192 L204.808,12 L208,8.808 L207.192,8" id="Fill-26" fill="#FFFFFF" sketch:type="MSShapeGroup"></path>
            <path d="M47.705,176.59 L43.125,172 L47.705,167.41 L46.295,166 L40.295,172 L46.295,178 L47.705,176.59" id="Fill-27" fill="#FFFFFF" sketch:type="MSShapeGroup"></path>
            <path d="M72.295,167.41 L76.875,172 L72.295,176.59 L73.705,178 L79.705,172 L73.705,166 L72.295,167.41" id="Fill-28" fill="#FFFFFF" sketch:type="MSShapeGroup"></path>
            <path d="M108.067,176.25 L108,176.316 L107.933,176.25 C104.76,173.376 102.667,171.476 102.667,169.55 C102.667,168.216 103.667,167.216 105,167.216 C106.027,167.216 107.027,167.876 107.38,168.79 L108.627,168.79 C108.973,167.876 109.973,167.216 111,167.216 C112.333,167.216 113.333,168.216 113.333,169.55 C113.333,171.476 111.24,173.376 108.067,176.25 M111,165.883 C109.84,165.883 108.727,166.423 108,167.276 C107.273,166.423 106.16,165.883 105,165.883 C102.947,165.883 101.333,167.496 101.333,169.55 C101.333,172.07 103.6,174.123 107.033,177.243 L108,178.116 L108.967,177.236 C112.4,174.123 114.667,172.07 114.667,169.55 C114.667,167.496 113.053,165.883 111,165.883" id="Fill-29" fill="#FFFFFF" sketch:type="MSShapeGroup"></path>
            <path d="M167.334,145.666 L176.667,145.666 L176.667,144.333 L167.334,144.333 L167.334,145.666 Z M176.667,138.333 L174,138.333 L174,134.333 L170,134.333 L170,138.333 L167.334,138.333 L172,143 L176.667,138.333 L176.667,138.333 Z" id="Fill-30" fill="#FFFFFF" sketch:type="MSShapeGroup"></path>
            <path d="M140,170 C138.893,170 138,170.893 138,172 C138,173.107 138.893,174 140,174 C141.107,174 142,173.107 142,172 C142,170.893 141.107,170 140,170 M140,175.333 C138.16,175.333 136.667,173.84 136.667,172 C136.667,170.16 138.16,168.667 140,168.667 C141.84,168.667 143.333,170.16 143.333,172 C143.333,173.84 141.84,175.333 140,175.333 M140,167 C136.667,167 133.82,169.073 132.667,172 C133.82,174.927 136.667,177 140,177 C143.333,177 146.18,174.927 147.333,172 C146.18,169.073 143.333,167 140,167" id="Fill-31" fill="#FFFFFF" sketch:type="MSShapeGroup"></path>
            <path d="M7.334,49.666 L16.667,49.666 L16.667,48.333 L7.334,48.333 L7.334,49.666 Z M16.667,42.333 L14,42.333 L14,38.333 L10,38.333 L10,42.333 L7.334,42.333 L12,47 L16.667,42.333 L16.667,42.333 Z" id="Fill-32" fill="#1976D1" sketch:type="MSShapeGroup"></path>
            <path d="M43.334,40.667 L44.667,40.667 L44.667,42 L43.334,42 L43.334,40.667 Z M43.334,43.333 L44.667,43.333 L44.667,47.333 L43.334,47.333 L43.334,43.333 Z M44,37.333 C40.32,37.333 37.333,40.32 37.333,44 C37.333,47.68 40.32,50.666 44,50.666 C47.68,50.666 50.667,47.68 50.667,44 C50.667,40.32 47.68,37.333 44,37.333 L44,37.333 Z" id="Fill-33" fill="#1976D1" sketch:type="MSShapeGroup"></path>
            <path d="M75,39 L77,39 L77,41 L75,41 L75,39 Z M75,43 L77,43 L77,49 L75,49 L75,43 Z M76,34 C70.48,34 66,38.48 66,44 C66,49.52 70.48,54 76,54 C81.52,54 86,49.52 86,44 C86,38.48 81.52,34 76,34 L76,34 Z" id="Fill-34" fill="#1976D1" sketch:type="MSShapeGroup"></path>
            <path d="M102,39 L114,39 L114,35 L102,35 L102,39 Z M115,44 C114.45,44 114,43.55 114,43 C114,42.45 114.45,42 115,42 C115.55,42 116,42.45 116,43 C116,43.55 115.55,44 115,44 L115,44 Z M104,46 L112,46 L112,51 L104,51 L104,46 Z M115,40 L101,40 C99.34,40 98,41.34 98,43 L98,49 L102,49 L102,53 L114,53 L114,49 L118,49 L118,43 C118,41.34 116.66,40 115,40 L115,40 Z" id="Fill-35" fill="#1976D1" sketch:type="MSShapeGroup"></path>
            <path d="M148.709,39.041 C149.099,38.651 149.099,38.021 148.709,37.631 L146.369,35.291 C145.979,34.901 145.349,34.901 144.959,35.291 L143.129,37.121 L146.879,40.871 L148.709,39.041 L148.709,39.041 Z M130.999,49.251 L130.999,53.001 L134.749,53.001 L145.809,41.941 L142.059,38.191 L130.999,49.251 L130.999,49.251 Z" id="Fill-36" fill="#1976D1" sketch:type="MSShapeGroup"></path>
            <path d="M177.13,37.84 C176.77,37.33 176.17,37 175.5,37 L164.5,37.01 C163.4,37.01 162.5,37.9 162.5,39 L162.5,49 C162.5,50.1 163.4,50.99 164.5,50.99 L175.5,51 C176.17,51 176.77,50.67 177.13,50.16 L181.5,44 L177.13,37.84" id="Fill-37" fill="#1976D1" sketch:type="MSShapeGroup"></path>
            <path d="M214.728,50.95 L205.628,41.85 C206.528,39.55 206.028,36.85 204.128,34.95 C202.128,32.95 199.128,32.55 196.728,33.65 L201.028,37.95 L198.028,40.95 L193.628,36.65 C192.428,39.05 192.928,42.05 194.928,44.05 C196.828,45.95 199.528,46.45 201.828,45.55 L210.928,54.65 C211.328,55.05 211.928,55.05 212.328,54.65 L214.628,52.35 C215.128,51.95 215.128,51.25 214.728,50.95" id="Fill-38" fill="#1976D1" sketch:type="MSShapeGroup"></path>
            <path d="M236,52 C231.59,52 228,48.41 228,44 C228,39.59 231.59,36 236,36 C240.41,36 244,39.59 244,44 C244,48.41 240.41,52 236,52 M236,34 C230.48,34 226,38.48 226,44 C226,49.52 230.48,54 236,54 C241.52,54 246,49.52 246,44 C246,38.48 241.52,34 236,34 M234.08,42.86 C234.13,42.53 234.24,42.24 234.38,41.99 C234.52,41.74 234.72,41.53 234.97,41.37 C235.21,41.22 235.51,41.15 235.88,41.14 C236.11,41.15 236.32,41.19 236.51,41.27 C236.71,41.36 236.89,41.48 237.03,41.63 C237.17,41.78 237.28,41.96 237.37,42.16 C237.46,42.36 237.5,42.58 237.51,42.8 L239.3,42.8 C239.28,42.33 239.19,41.9 239.02,41.51 C238.85,41.12 238.62,40.78 238.32,40.5 C238.02,40.22 237.66,40 237.24,39.84 C236.82,39.68 236.36,39.61 235.85,39.61 C235.2,39.61 234.63,39.72 234.15,39.95 C233.67,40.18 233.27,40.48 232.95,40.87 C232.63,41.26 232.39,41.71 232.24,42.23 C232.09,42.75 232,43.29 232,43.87 L232,44.14 C232,44.72 232.08,45.26 232.23,45.78 C232.38,46.3 232.62,46.75 232.94,47.13 C233.26,47.51 233.66,47.82 234.14,48.04 C234.62,48.26 235.19,48.38 235.84,48.38 C236.31,48.38 236.75,48.3 237.16,48.15 C237.57,48 237.93,47.79 238.24,47.52 C238.55,47.25 238.8,46.94 238.98,46.58 C239.16,46.22 239.27,45.84 239.28,45.43 L237.49,45.43 C237.48,45.64 237.43,45.83 237.34,46.01 C237.25,46.19 237.13,46.34 236.98,46.47 C236.83,46.6 236.66,46.7 236.46,46.77 C236.27,46.84 236.07,46.86 235.86,46.87 C235.5,46.86 235.2,46.79 234.97,46.64 C234.72,46.48 234.52,46.27 234.38,46.02 C234.24,45.77 234.13,45.47 234.08,45.14 C234.03,44.81 234,44.47 234,44.14 L234,43.87 C234,43.52 234.03,43.19 234.08,42.86" id="Fill-39" fill="#1976D1" sketch:type="MSShapeGroup"></path>
            <path d="M80.258,278.978 C80.258,277.346 80.94,276.108 82.536,276.108 C84.132,276.108 84.814,277.346 84.814,278.87 C84.814,280.61 84.132,281.848 82.536,281.848 C80.94,281.848 80.258,280.61 80.258,278.978 L80.258,278.978 Z M77.46,278.978 C77.46,282.189 79.558,284 82.536,284 C85.513,284 87.612,282.189 87.612,278.978 C87.612,275.768 85.513,273.956 82.536,273.956 C79.558,273.956 77.46,275.768 77.46,278.978 L77.46,278.978 Z M65.588,274.207 L62.79,274.207 L62.79,283.749 L65.588,283.749 L65.588,277.812 C65.588,276.951 65.946,276.216 67.076,276.216 C68.153,276.216 68.44,276.844 68.44,277.776 L68.44,283.749 L71.238,283.749 L71.238,277.884 C71.238,276.915 71.722,276.216 72.655,276.216 C73.713,276.216 74.09,276.826 74.09,278.171 L74.09,283.749 L76.888,283.749 L76.888,276.467 C76.888,274.279 74.879,273.956 73.946,273.956 C72.834,273.956 71.794,274.297 70.879,275.229 C70.251,274.386 69.444,273.956 68.35,273.956 C67.489,273.956 66.305,274.207 65.588,275.05 L65.588,274.207 L65.588,274.207 Z M50.595,274.207 L47.796,274.207 L47.796,283.749 L50.595,283.749 L50.595,277.812 C50.595,276.951 50.953,276.216 52.083,276.216 C53.16,276.216 53.447,276.844 53.447,277.776 L53.447,283.749 L56.245,283.749 L56.245,277.884 C56.245,276.915 56.729,276.216 57.662,276.216 C58.72,276.216 59.097,276.826 59.097,278.171 L59.097,283.749 L61.895,283.749 L61.895,276.467 C61.895,274.279 59.886,273.956 58.953,273.956 C57.841,273.956 56.801,274.297 55.886,275.229 C55.258,274.386 54.451,273.956 53.357,273.956 C52.496,273.956 51.312,274.207 50.595,275.05 L50.595,274.207 L50.595,274.207 Z M39.869,278.978 C39.869,277.346 40.551,276.108 42.147,276.108 C43.743,276.108 44.425,277.346 44.425,278.87 C44.425,280.61 43.743,281.848 42.147,281.848 C40.551,281.848 39.869,280.61 39.869,278.978 L39.869,278.978 Z M37.071,278.978 C37.071,282.189 39.169,284 42.147,284 C45.124,284 47.223,282.189 47.223,278.978 C47.223,275.768 45.124,273.956 42.147,273.956 C39.169,273.956 37.071,275.768 37.071,278.978 L37.071,278.978 Z M27.997,278.978 C27.997,282.189 29.97,284 32.822,284 C34.651,284 36.212,282.996 37.073,281.471 L35.064,280.449 C34.615,281.525 33.934,281.848 33.073,281.848 C31.584,281.848 30.902,280.61 30.902,278.978 C30.902,277.346 31.476,276.108 33.073,276.108 C33.503,276.108 34.364,276.341 34.866,277.418 L37.019,276.288 C36.104,274.619 34.543,273.956 32.732,273.956 C30.095,273.956 27.997,275.821 27.997,278.978 L27.997,278.978 Z M12.158,273.326 C12.158,272.267 12.531,271.463 13.566,271.463 C13.846,271.463 14.405,271.615 14.731,272.313 L16.127,271.58 C15.534,270.497 14.521,270.067 13.345,270.067 C11.634,270.067 10.272,271.277 10.272,273.326 C10.272,275.409 11.553,276.585 13.404,276.585 C14.591,276.585 15.604,275.933 16.162,274.944 L14.859,274.28 C14.567,274.979 14.125,275.188 13.566,275.188 C12.6,275.188 12.158,274.385 12.158,273.326 L12.158,273.326 Z M18.22,273.326 C18.22,272.267 18.593,271.463 19.629,271.463 C19.908,271.463 20.467,271.615 20.793,272.313 L22.189,271.58 C21.596,270.497 20.583,270.067 19.407,270.067 C17.696,270.067 16.334,271.277 16.334,273.326 C16.334,275.409 17.615,276.585 19.466,276.585 C20.653,276.585 21.666,275.933 22.224,274.944 L20.921,274.28 C20.63,274.979 20.187,275.188 19.629,275.188 C18.663,275.188 18.22,274.385 18.22,273.326 L18.22,273.326 Z M24.842,273.326 C24.842,275.687 24.007,277.76 22.395,279.343 C20.696,281.013 18.508,281.905 16.263,281.905 C13.988,281.905 11.858,281.013 10.217,279.372 C8.576,277.731 7.654,275.572 7.654,273.326 C7.654,271.052 8.576,268.892 10.217,267.222 C11.829,265.581 13.902,264.718 16.263,264.718 C18.623,264.718 20.725,265.61 22.366,267.251 C23.978,268.864 24.842,270.994 24.842,273.326 L24.842,273.326 Z M23.748,280.696 C25.706,278.767 26.742,276.205 26.742,273.326 C26.742,270.476 25.706,267.885 23.719,265.898 C21.704,263.883 19.113,262.817 16.234,262.817 C13.355,262.817 10.821,263.883 8.864,265.869 C6.848,267.913 5.754,270.562 5.754,273.326 C5.754,276.119 6.82,278.709 8.835,280.725 C10.85,282.74 13.47,283.834 16.234,283.834 C18.998,283.834 21.675,282.74 23.748,280.696 L23.748,280.696 Z M30.902,268 C30.902,266.368 31.476,265.13 33.073,265.13 C33.503,265.13 34.364,265.363 34.866,266.44 L37.019,265.31 C36.104,263.641 34.543,262.978 32.732,262.978 C30.095,262.978 27.997,264.843 27.997,268 C27.997,271.211 29.97,273.022 32.822,273.022 C34.651,273.022 36.212,272.018 37.073,270.493 L35.064,269.471 C34.615,270.547 33.934,270.87 33.073,270.87 C31.584,270.87 30.902,269.632 30.902,268 L30.902,268 Z M42.831,265.704 L43.136,265.668 L43.118,263.193 C42.132,263.265 41.109,263.624 40.5,264.198 L40.5,263.229 L37.701,263.229 L37.701,272.771 L40.5,272.771 L40.5,267.247 C40.5,266.188 41.163,265.902 42.831,265.704 L42.831,265.704 Z M46.038,266.852 C46.164,265.597 47.132,265.023 47.94,265.023 C48.747,265.023 49.751,265.453 49.841,266.852 L46.038,266.852 L46.038,266.852 Z M46.074,268.574 L52.639,268.574 C52.621,265.632 51.437,262.978 47.958,262.978 C45.052,262.978 43.276,264.915 43.276,268.287 C43.276,270.978 44.998,273.022 47.958,273.022 C50.092,273.022 51.617,272.179 52.585,270.386 L50.486,269.291 C49.679,270.439 49.195,270.978 48.155,270.978 C47.258,270.978 46.092,270.404 46.074,268.574 L46.074,268.574 Z M59.058,268.789 C59.058,270.242 58.232,270.978 57.138,270.978 C56.457,270.978 55.829,270.655 55.829,269.901 C55.829,269.13 56.475,268.861 57.174,268.664 L59.058,268.126 L59.058,268.789 L59.058,268.789 Z M59.416,272.771 L61.999,272.771 C61.766,272.179 61.748,271.444 61.748,270.78 L61.748,265.74 C61.73,263.588 60.098,262.978 57.497,262.978 C56.206,262.978 53.659,263.229 53.569,265.973 L56.26,265.973 C56.403,265.023 56.833,264.7 57.73,264.7 C58.484,264.7 59.058,265.005 59.058,265.722 L59.058,266.511 L58.035,266.655 C54.986,267.085 53.138,267.892 53.138,270.188 C53.138,272.018 54.502,273.022 56.331,273.022 C57.336,273.022 58.735,272.538 59.201,271.785 L59.237,271.785 C59.255,272.108 59.309,272.448 59.416,272.771 L59.416,272.771 Z M66.588,273.022 C67.198,273.022 68.023,272.951 68.382,272.915 L68.382,270.709 C68.238,270.726 67.844,270.762 67.539,270.762 C67.036,270.762 66.66,270.565 66.66,269.812 L66.66,265.13 L68.328,265.13 L68.328,263.408 L66.66,263.408 L66.66,260.646 L63.861,260.646 L63.861,263.408 L62.499,263.408 L62.499,265.13 L63.861,265.13 L63.861,270.153 C63.861,271.534 64.202,273.022 66.588,273.022 L66.588,273.022 Z M69.382,262.153 L72.18,262.153 L72.18,260.001 L69.382,260.001 L69.382,262.153 Z M69.382,272.771 L72.18,272.771 L72.18,263.229 L69.382,263.229 L69.382,272.771 Z M78.761,272.771 L82.026,263.229 L79.049,263.229 L77.398,269.973 L77.363,269.973 L75.712,263.229 L72.717,263.229 L75.946,272.771 L78.761,272.771 L78.761,272.771 Z M84.462,266.852 C84.587,265.597 85.555,265.023 86.363,265.023 C87.17,265.023 88.175,265.453 88.264,266.852 L84.462,266.852 L84.462,266.852 Z M84.497,268.574 L91.062,268.574 C91.044,265.632 89.86,262.978 86.381,262.978 C83.475,262.978 81.7,264.915 81.7,268.287 C81.7,270.978 83.421,273.022 86.381,273.022 C88.515,273.022 90.04,272.179 91.009,270.386 L88.91,269.291 C88.103,270.439 87.618,270.978 86.578,270.978 C85.681,270.978 84.515,270.404 84.497,268.574 L84.497,268.574 Z M94.015,283.749 L96.813,283.749 L96.813,276.7 C96.813,275.265 96.185,273.956 93.925,273.956 C93.064,273.956 91.88,274.207 91.163,275.05 L91.163,274.207 L88.365,274.207 L88.365,283.749 L91.163,283.749 L91.163,277.812 C91.163,276.951 91.521,276.216 92.652,276.216 C93.728,276.216 94.015,276.844 94.015,277.776 L94.015,283.749 L94.015,283.749 Z M104.434,277.023 L106.156,275.337 C104.865,274.476 103.412,273.956 101.941,273.956 C100.004,273.956 97.905,274.889 97.905,277.292 C97.905,280.682 103.555,279.498 103.555,280.987 C103.555,281.848 102.497,281.956 102.03,281.956 C100.757,281.956 99.878,281.436 99.017,280.61 L97.277,282.117 C98.677,283.408 99.86,284 101.941,284 C104.021,284 106.246,283.103 106.246,280.592 C106.246,277.023 100.596,278.368 100.596,276.736 C100.596,276.252 101.098,276.001 101.797,276.001 C102.677,276.001 103.878,276.359 104.434,277.023 L104.434,277.023 Z" id="Fill-40" fill="#8A8C8F" sketch:type="MSShapeGroup"></path>
            <path d="M44,116.64 C41,116.64 38.348,115.104 36.8,112.776 C36.836,110.388 41.6,109.08 44,109.08 C46.388,109.08 51.164,110.388 51.2,112.776 C49.652,115.104 47,116.64 44,116.64 M44,99.6 C45.992,99.6 47.6,101.208 47.6,103.2 C47.6,105.192 45.992,106.8 44,106.8 C42.008,106.8 40.4,105.192 40.4,103.2 C40.4,101.208 42.008,99.6 44,99.6 M44,96 C37.376,96 32,101.376 32,108 C32,114.624 37.376,120 44,120 C50.624,120 56,114.624 56,108 C56,101.376 50.624,96 44,96" id="Fill-41" fill="#8FC9F9" sketch:type="MSShapeGroup"></path>
            <path d="M115,198.41 L113.59,197 L108,202.59 L102.41,197 L101,198.41 L106.59,204 L101,209.59 L102.41,211 L108,205.41 L113.59,211 L115,209.59 L109.41,204 L115,198.41" id="Fill-42" fill="#C4C5C7" sketch:type="MSShapeGroup"></path>
            <path d="M147,205 L141,205 L141,211 L139,211 L139,205 L133,205 L133,203 L139,203 L139,197 L141,197 L141,203 L147,203 L147,205" id="Fill-43" fill="#C4C5C7" sketch:type="MSShapeGroup"></path>
            <path d="M165,203 L179,203 L179,205 L165,205 L165,203 Z" id="Fill-44" fill="#C4C5C7" sketch:type="MSShapeGroup"></path>
            <path d="M179,164 L175.5,164 L174.5,163 L169.5,163 L168.5,164 L165,164 L165,166 L179,166 L179,164 L179,164 Z M166,179 C166,180.1 166.9,181 168,181 L176,181 C177.1,181 178,180.1 178,179 L178,167 L166,167 L166,179 L166,179 Z" id="Fill-45" fill="#FFFFFF" sketch:type="MSShapeGroup"></path>
            <path d="M206.19,174.19 L198,178 L201.81,169.81 L210,166 L206.19,174.19 L206.19,174.19 Z M204,162 C198.48,162 194,166.48 194,172 C194,177.52 198.48,182 204,182 C209.52,182 214,177.52 214,172 C214,166.48 209.52,162 204,162 L204,162 Z M204,170.9 C203.39,170.9 202.9,171.39 202.9,172 C202.9,172.61 203.39,173.1 204,173.1 C204.61,173.1 205.1,172.61 205.1,172 C205.1,171.39 204.61,170.9 204,170.9 L204,170.9 Z" id="Fill-46" fill="#FFFFFF" sketch:type="MSShapeGroup"></path>
            <path d="M18,82.5 C17.17,82.5 16.5,81.83 16.5,81 C16.5,80.17 17.17,79.5 18,79.5 C18.83,79.5 19.5,80.17 19.5,81 C19.5,81.83 18.83,82.5 18,82.5 L18,82.5 Z M19.5,73.5 L21.46,76 L17,76 L17,73.5 L19.5,73.5 L19.5,73.5 Z M6,82.5 C5.17,82.5 4.5,81.83 4.5,81 C4.5,80.17 5.17,79.5 6,79.5 C6.83,79.5 7.5,80.17 7.5,81 C7.5,81.83 6.83,82.5 6,82.5 L6,82.5 Z M20,72 L17,72 L17,68 L3,68 C1.9,68 1,68.9 1,70 L1,81 L3,81 C3,82.66 4.34,84 6,84 C7.66,84 9,82.66 9,81 L15,81 C15,82.66 16.34,84 18,84 C19.66,84 21,82.66 21,81 L23,81 L23,76 L20,72 L20,72 Z" id="Fill-47" fill="#1976D1" sketch:type="MSShapeGroup"></path>
            <path d="M36,70 L52,70 L52,72 L36,72 L36,70 Z M36,76 L52,76 L52,82 L36,82 L36,76 Z M52,68 L36,68 C34.89,68 34.01,68.89 34.01,70 L34,82 C34,83.11 34.89,84 36,84 L52,84 C53.11,84 54,83.11 54,82 L54,70 C54,68.89 53.11,68 52,68 L52,68 Z" id="Fill-48" fill="#1976D1" sketch:type="MSShapeGroup"></path>
            <path d="M76,244 C71.58,244 68,240.42 68,236 C68,231.58 71.58,228 76,228 C80.42,228 84,231.58 84,236 C84,240.42 80.42,244 76,244 M76,226 C70.48,226 66,230.48 66,236 C66,241.52 70.48,246 76,246 C81.52,246 86,241.52 86,236 C86,230.48 81.52,226 76,226 M76,231 C73.24,231 71,233.24 71,236 C71,238.76 73.24,241 76,241 C78.76,241 81,238.76 81,236 C81,233.24 78.76,231 76,231" id="Fill-49" fill="#8A8C8F" sketch:type="MSShapeGroup"></path>
            <path d="M108,244 C103.58,244 100,240.42 100,236 C100,231.58 103.58,228 108,228 C112.42,228 116,231.58 116,236 C116,240.42 112.42,244 108,244 M108,226 C102.48,226 98,230.48 98,236 C98,241.52 102.48,246 108,246 C113.52,246 118,241.52 118,236 C118,230.48 113.52,226 108,226" id="Fill-50" fill="#8A8C8F" sketch:type="MSShapeGroup"></path>
            <path d="M140,244 C135.59,244 132,240.41 132,236 C132,231.59 135.59,228 140,228 C144.41,228 148,231.59 148,236 C148,240.41 144.41,244 140,244 M140,226 C134.48,226 130,230.48 130,236 C130,241.52 134.48,246 140,246 C145.52,246 150,241.52 150,236 C150,230.48 145.52,226 140,226 M141,231 L139,231 L139,235 L135,235 L135,237 L139,237 L139,241 L141,241 L141,237 L145,237 L145,235 L141,235 L141,231" id="Fill-51" fill="#8A8C8F" sketch:type="MSShapeGroup"></path>
            <path d="M172,355.04 C164,355.04 156.928,350.944 152.8,344.736 C152.896,338.368 165.6,334.88 172,334.88 C178.368,334.88 191.104,338.368 191.2,344.736 C187.072,350.944 180,355.04 172,355.04 M172,309.6 C177.312,309.6 181.6,313.888 181.6,319.2 C181.6,324.512 177.312,328.8 172,328.8 C166.688,328.8 162.4,324.512 162.4,319.2 C162.4,313.888 166.688,309.6 172,309.6 M172,300 C154.336,300 140,314.336 140,332 C140,349.664 154.336,364 172,364 C189.664,364 204,349.664 204,332 C204,314.336 189.664,300 172,300" id="Fill-52" fill="#FFFFFF" sketch:type="MSShapeGroup"></path>
            <path d="M76,83.2 C73.5,83.2 71.29,81.92 70,79.98 C70.03,77.99 74,76.9 76,76.9 C77.99,76.9 81.97,77.99 82,79.98 C80.71,81.92 78.5,83.2 76,83.2 M76,69 C77.66,69 79,70.34 79,72 C79,73.66 77.66,75 76,75 C74.34,75 73,73.66 73,72 C73,70.34 74.34,69 76,69 M76,66 C70.48,66 66,70.48 66,76 C66,81.52 70.48,86 76,86 C81.52,86 86,81.52 86,76 C86,70.48 81.52,66 76,66" id="Fill-53" fill="#1976D1" sketch:type="MSShapeGroup"></path>
            <path d="M180.709,231.041 C181.099,230.651 181.099,230.021 180.709,229.631 L178.369,227.291 C177.979,226.901 177.349,226.901 176.959,227.291 L175.129,229.121 L178.879,232.871 L180.709,231.041 L180.709,231.041 Z M162.999,241.251 L162.999,245.001 L166.749,245.001 L177.809,233.941 L174.059,230.191 L162.999,241.251 L162.999,241.251 Z" id="Fill-54" fill="#8A8C8F" sketch:type="MSShapeGroup"></path>
            <path d="M211,228 L207.5,228 L206.5,227 L201.5,227 L200.5,228 L197,228 L197,230 L211,230 L211,228 L211,228 Z M198,243 C198,244.1 198.9,245 200,245 L208,245 C209.1,245 210,244.1 210,243 L210,231 L198,231 L198,243 L198,243 Z" id="Fill-55" fill="#8A8C8F" sketch:type="MSShapeGroup"></path>
            <path d="M113.645,70.35 C112.195,68.9 110.205,68 107.995,68 C103.575,68 100.005,71.58 100.005,76 C100.005,80.42 103.575,84 107.995,84 C111.725,84 114.835,81.45 115.725,78 L113.645,78 C112.825,80.33 110.605,82 107.995,82 C104.685,82 101.995,79.31 101.995,76 C101.995,72.69 104.685,70 107.995,70 C109.655,70 111.135,70.69 112.215,71.78 L108.995,75 L115.995,75 L115.995,68 L113.645,70.35" id="Fill-56" fill="#1976D1" sketch:type="MSShapeGroup"></path>
            <path d="M140,75.5 C138.62,75.5 137.5,74.38 137.5,73 C137.5,71.62 138.62,70.5 140,70.5 C141.38,70.5 142.5,71.62 142.5,73 C142.5,74.38 141.38,75.5 140,75.5 M140,66 C136.13,66 133,69.13 133,73 C133,78.25 140,86 140,86 C140,86 147,78.25 147,73 C147,69.13 143.87,66 140,66" id="Fill-57" fill="#1976D1" sketch:type="MSShapeGroup"></path>
            <path d="M236,239.847 L240.12,242.334 L239.027,237.647 L242.667,234.494 L237.873,234.087 L236,229.667 L234.127,234.087 L229.333,234.494 L232.973,237.647 L231.88,242.334 L236,239.847" id="Fill-58" fill="#8A8C8F" sketch:type="MSShapeGroup"></path>
            <path d="M243,173 L237,173 L237,179 L235,179 L235,173 L229,173 L229,171 L235,171 L235,165 L237,165 L237,171 L243,171 L243,173" id="Fill-59" fill="#FFFFFF" sketch:type="MSShapeGroup"></path>
            <path d="M38,367.25 L20.5,367.25 L20.5,377.75 L17,377.75 L17,363.75 L27.5,363.75 L27.5,356.75 L13.5,356.75 L13.5,367.25 L10,367.25 C8.075,367.25 6.5,368.825 6.5,370.75 L6.5,391.75 C6.5,393.675 8.075,395.25 10,395.25 L38,395.25 C39.925,395.25 41.5,393.675 41.5,391.75 L41.5,370.75 C41.5,368.825 39.925,367.25 38,367.25" id="Fill-60" fill="#C4C5C7" sketch:type="MSShapeGroup"></path>
            <path d="M170,84 L170,78 L174,78 L174,84 L179,84 L179,76 L182,76 L172,67 L162,76 L165,76 L165,84 L170,84" id="Fill-61" fill="#1976D1" sketch:type="MSShapeGroup"></path>
        </g>
    </g>
</svg>