<?xml version="1.0" encoding="utf-8"?>
<!-- Generator: Adobe Illustrator 19.2.1, SVG Export Plug-In . SVG Version: 6.00 Build 0)  -->
<svg version="1.1" id="Layer_1" xmlns="http://www.w3.org/2000/svg" xmlns:xlink="http://www.w3.org/1999/xlink" x="0px" y="0px"
	 viewBox="0 0 134 32" style="enable-background:new 0 0 134 32;" xml:space="preserve">
<style type="text/css">
	.st0{fill:#FFFFFF;}
</style>
<g>
	<path class="st0" d="M19.5,16c0,1.8-1.4,3.2-3.2,3.2h-1.6v-6.4h1.6C18.1,12.8,19.5,14.2,19.5,16 M22.7,16c0-3.5-2.9-6.4-6.4-6.4
		h-4.8v12.8h4.8C19.9,22.4,22.7,19.5,22.7,16 M25.9,16c0,5.3-4.3,9.6-9.6,9.6c-5.3,0-9.6-4.3-9.6-9.6s4.3-9.6,9.6-9.6
		C21.6,6.4,25.9,10.7,25.9,16 M28.7,12.8c-0.3-1.2-0.8-2.3-1.4-3.3l2.2-3l-3.7-3.7l-3,2.2c-1-0.6-2.1-1.1-3.3-1.4L19,0h-5.3
		l-0.6,3.6C12,3.9,10.9,4.4,9.8,5l-3-2.2L3.2,6.5l2.2,3c-0.6,1-1.1,2.1-1.4,3.3l-3.6,0.6v5.3l3.6,0.6c0.3,1.2,0.8,2.3,1.4,3.3
		l-2.2,3l3.7,3.7l3-2.2c1,0.6,2.1,1.1,3.3,1.4l0.6,3.6H19l0.6-3.6c1.2-0.3,2.3-0.8,3.3-1.4l3,2.2l3.7-3.7l-2.2-3
		c0.6-1,1.1-2.1,1.4-3.3l3.6-0.6v-5.3L28.7,12.8z"/>
	<path class="st0" d="M50.6,16c0,2.5-1.7,3.9-4.2,3.9h-1.7v-7.8h1.7C48.9,12.1,50.6,13.5,50.6,16L50.6,16z M54.9,16L54.9,16
		c0-4.5-3.2-7.6-8.7-7.6h-5.9v15.4h5.8C51.7,23.7,54.9,20.4,54.9,16 M57.1,23.7h12.5v-3.6h-8.3v-2.4h7.4v-3.4h-7.4v-2.3h8.2V8.3
		H57.1V23.7z M82,16c0,2.5-1.7,3.9-4.2,3.9h-1.7v-7.8h1.7C80.3,12.1,82,13.5,82,16L82,16z M86.4,16L86.4,16c0-4.5-3.2-7.6-8.7-7.6
		h-5.9v15.4h5.8C83.2,23.7,86.4,20.4,86.4,16 M96.6,17.6h-3.5l1.7-4.4L96.6,17.6z M98.9,23.7h4.6L96.9,8.2h-4.1l-6.5,15.5h4.5
		l1.1-2.7h5.9L98.9,23.7z M105,23.7h11.7V20h-7.4V8.3H105V23.7z M129.3,16c0,2.2-1.6,4.1-3.9,4.1c-2.3,0-3.9-1.9-3.9-4.2v0
		c0-2.2,1.6-4.1,3.9-4.1C127.7,11.8,129.3,13.8,129.3,16L129.3,16z M133.7,16L133.7,16c0-4.5-3.5-8-8.3-8c-4.7,0-8.3,3.6-8.3,8v0
		c0,4.4,3.5,8,8.3,8C130.1,24,133.7,20.4,133.7,16"/>
</g>
</svg>
